<?xml version="1.0" encoding="utf-8"?>
<!-- Generator: Adobe Illustrator 24.0.1, SVG Export Plug-In . SVG Version: 6.00 Build 0)  -->
<svg version="1.1" id="圖層_1" xmlns="http://www.w3.org/2000/svg" xmlns:xlink="http://www.w3.org/1999/xlink" x="0px" y="0px"
	 viewBox="0 0 512 512" style="enable-background:new 0 0 512 512;" xml:space="preserve">
<style type="text/css">
	.st0{clip-path:url(#SVGID_2_);}
	.st1{fill:#3C3C3D;}
	.st2{fill:#FFFFFF;}
</style>
<g>
	<defs>
		<rect id="SVGID_1_" width="512" height="512"/>
	</defs>
	<clipPath id="SVGID_2_">
		<use xlink:href="#SVGID_1_"  style="overflow:visible;"/>
	</clipPath>
	<g class="st0">
		<circle class="st1" cx="256" cy="256" r="256"/>
		<g>
			<path class="st2" d="M264.2,276c-0.2,0.1-0.4,0.2-0.5,0.3c-0.2,0.1-0.4,0.2-0.6,0.3c-1,0.5-2.1,1-3.1,1.2c-0.1,0-0.2,0-0.3,0.1
				c-1.2,0.3-2.4,0.4-3.6,0.4h0c-1.2,0-2.4-0.2-3.6-0.4c-0.1,0-0.2-0.1-0.3-0.1c-1.1-0.3-2.2-0.7-3.2-1.2c-0.2-0.1-0.4-0.2-0.6-0.3
				c-0.2-0.1-0.4-0.2-0.5-0.3l-144.7-90.3c-0.3,1.6-0.4,3.1-0.4,4.7v144.8c0,15.1,12.3,27.4,27.4,27.4h251.9
				c15.2,0,27.4-12.3,27.4-27.4h0V190.5c0-1.6-0.2-3.2-0.4-4.7L264.2,276z"/>
			<polygon class="st2" points="256,90 104.5,184.5 407.5,184.5 			"/>
		</g>
	</g>
</g>
</svg>
