<?xml version="1.0" encoding="utf-8"?>
<!-- Generator: Adobe Illustrator 24.0.1, SVG Export Plug-In . SVG Version: 6.00 Build 0)  -->
<svg version="1.1" id="圖層_1" xmlns="http://www.w3.org/2000/svg" xmlns:xlink="http://www.w3.org/1999/xlink" x="0px" y="0px"
	 viewBox="0 0 512 512" style="enable-background:new 0 0 512 512;" xml:space="preserve">
<style type="text/css">
	.st0{clip-path:url(#SVGID_2_);}
	.st1{fill:#FFFFFF;}
</style>
<g>
	<defs>
		<rect id="SVGID_1_" width="512" height="512"/>
	</defs>
	<clipPath id="SVGID_2_">
		<use xlink:href="#SVGID_1_"  style="overflow:visible;"/>
	</clipPath>
	<g class="st0">
		<path class="st1" d="M391,187.9v-54C391,60.1,330.9,0,254.9,0c-73.8,0-134,60.1-134,133.9v54c-29.8,0-54,24.2-54,54.1V458
			c0,29.7,24.2,54,54,54H391c29.8,0,54-24.2,54-54V242C445.1,212.1,420.8,187.9,391,187.9z M175,133.9c0-44.1,35.9-79.9,82.1-79.9
			c44.1,0,79.9,35.9,79.9,79.9v54H175V133.9z M121,458V242H391l0,216.1H121z"/>
		<path class="st1" d="M256,296c-29.8,0-54,24.2-54,54c0,29.8,24.2,54,54,54c29.8,0,54-24.2,54-54C310,320.1,285.8,296,256,296z"/>
	</g>
</g>
</svg>
