<?xml version="1.0" encoding="utf-8"?>
<!-- Generator: Adobe Illustrator 24.0.1, SVG Export Plug-In . SVG Version: 6.00 Build 0)  -->
<svg version="1.1" xmlns="http://www.w3.org/2000/svg" xmlns:xlink="http://www.w3.org/1999/xlink" x="0px" y="0px"
	 viewBox="0 0 512.3 150" style="enable-background:new 0 0 512.3 150;" xml:space="preserve">
<style type="text/css">
	.st0{clip-path:url(#SVGID_2_);}
	.st1{fill:#FFFFFF;stroke:#FFFFFF;stroke-width:0.25;stroke-miterlimit:10;}
</style>
<g>
	<defs>
		<rect id="SVGID_1_" x="0.1" width="512" height="150"/>
	</defs>
	<clipPath id="SVGID_2_">
		<use xlink:href="#SVGID_1_"  style="overflow:visible;"/>
	</clipPath>
	<g class="st0">
		<path class="st1" d="M47.9,49H4c-2.2,0-3.9,1.7-3.9,3.9c0,2.2,1.7,3.9,3.9,3.9h43.9C61,56.8,67,66.2,67,75s-6,18.2-19.2,18.2H25.9
			c-8.9,0-25.8,5.4-25.8,26v22.2c0,2.2,1.7,3.9,3.9,3.9s3.9-1.7,3.9-3.9v-22.1C8,101.6,24.2,101,26.1,101h21.9
			c17.6,0,26.9-13,26.9-26S65.5,49,47.9,49z"/>
		<path class="st1" d="M91.7,4.8c-2.1,0-3.9,1.7-3.9,3.9v88.4c0,2.2,1.7,3.9,3.9,3.9c2.2,0,3.9-1.7,3.9-3.9V8.7
			C95.6,6.6,93.9,4.8,91.7,4.8C91.8,4.8,91.8,4.8,91.7,4.8z"/>
		<path class="st1" d="M179.4,49h-43.9c-8.9,0-25.8,5.4-25.8,26s16.9,26,25.8,26h21.9c2.2,0,3.9-1.7,3.9-3.9c0-2.2-1.7-3.9-3.9-3.9
			h-21.9c-1.8,0-18.2-0.6-18.2-18.2s16.2-18.2,18.2-18.2h40v40.3c0,2.2,1.7,3.9,3.9,3.9s3.9-1.7,3.9-3.9V53c0-2.1-1.7-3.9-3.8-3.9
			C179.5,49,179.5,49,179.4,49z"/>
		<path class="st1" d="M201.3,49c-2.1,0-3.9,1.8-3.9,3.9V97c0,2.2,1.7,3.9,3.9,3.9s3.9-1.7,3.9-3.9V52.9
			C205.3,50.8,203.6,49,201.3,49C201.4,49,201.4,49,201.3,49z"/>
		<path class="st1" d="M267.2,49h-43.9c-2.1,0-3.9,1.8-3.9,3.9V97c0,2.2,1.7,3.9,3.9,3.9s3.9-1.7,3.9-3.9V56.8h40
			c1.8,0,18.2,0.6,18.2,18.2V97c0,2.2,1.7,3.9,3.9,3.9s3.9-1.7,3.9-3.9V75C292.9,54.4,276,49,267.2,49z"/>
		<path class="st1" d="M398.7,49h-43.9c-2.1,0-3.9,1.8-3.9,3.9V97c0,2.2,1.7,3.9,3.9,3.9c2.2,0,3.9-1.7,3.9-3.9V56.8H384v40.3
			c0,2.2,1.7,3.9,3.9,3.9c2.2,0,3.9-1.7,3.9-3.9V56.8h7.1c1.8,0,18.2,0.6,18.2,18.2V97c0,2.2,1.7,3.9,3.9,3.9c2.2,0,3.9-1.7,3.9-3.9
			V75C424.5,54.4,407.6,49,398.7,49z"/>
		<path class="st1" d="M486.4,49h-22c-8.9,0-25.8,5.4-25.8,26s16.9,26,25.8,26h21.9c2.2,0,3.9-1.7,3.9-3.9c0-2.2-1.7-3.9-3.9-3.9
			h-21.9c-1.7,0-15.6-0.6-17.8-14.3h61.6c2.1,0,3.9-1.8,3.9-3.9C512.2,66,506.8,49,486.4,49z M446.7,71.1
			c2.2-13.8,16.1-14.3,17.8-14.3h21.9c8.7-0.7,16.5,5.6,17.6,14.3H446.7z"/>
		<path class="st1" d="M332.9,71.1H311c-2.2,0-3.9,1.7-3.9,3.9c0,2.2,1.7,3.9,3.9,3.9h21.9c2.2,0,3.9-1.7,3.9-3.9
			C336.8,72.9,335,71.1,332.9,71.1z"/>
	</g>
</g>
</svg>
