<?xml version="1.0" encoding="utf-8"?>
<!-- Generator: Adobe Illustrator 24.0.1, SVG Export Plug-In . SVG Version: 6.00 Build 0)  -->
<svg version="1.1" id="圖層_1" xmlns="http://www.w3.org/2000/svg" xmlns:xlink="http://www.w3.org/1999/xlink" x="0px" y="0px"
	 viewBox="0 0 512 512" style="enable-background:new 0 0 512 512;" xml:space="preserve">
<style type="text/css">
	.st0{clip-path:url(#SVGID_2_);}
	.st1{fill:#3C3C3D;}
	.st2{fill:#FFFFFF;}
</style>
<g>
	<defs>
		<rect id="SVGID_1_" width="512" height="512"/>
	</defs>
	<clipPath id="SVGID_2_">
		<use xlink:href="#SVGID_1_"  style="overflow:visible;"/>
	</clipPath>
	<g class="st0">
		<circle class="st1" cx="256" cy="256" r="256"/>
		<g>
			<path class="st2" d="M256,180.5c-41.7,0-75.5,33.8-75.5,75.5c0,41.7,33.8,75.5,75.5,75.5c41.7,0,75.5-33.8,75.5-75.5
				C331.5,214.3,297.7,180.5,256,180.5z M256,305c-27.1,0-49-21.9-49-49s21.9-49,49-49c27.1,0,49,21.9,49,49S283.1,305,256,305z"/>
			<path class="st2" d="M334.5,159.9c-9.7,0-17.6,7.9-17.6,17.6c0,9.7,7.9,17.6,17.6,17.6c9.8,0,17.6-7.9,17.6-17.6
				C352.1,167.8,344.2,159.9,334.5,159.9z"/>
			<path class="st2" d="M395.3,159.7c-3.7-9.8-9.5-18.7-17-26c-7.3-7.5-16.2-13.3-26-17c-9.4-3.6-20-6.1-35.7-6.8
				c-15.7-0.7-20.7-0.9-60.6-0.9s-44.9,0.2-60.6,0.9c-15.7,0.7-26.3,3.2-35.7,6.8c-9.8,3.7-18.7,9.5-26,17c-7.5,7.3-13.3,16.2-17,26
				c-3.6,9.4-6.1,20-6.8,35.7c-0.7,15.7-0.9,20.7-0.9,60.6c0,39.9,0.2,44.9,0.9,60.6c0.7,15.6,3.2,26.3,6.8,35.7
				c3.7,9.8,9.5,18.7,16.9,26c7.4,7.5,16.2,13.3,26,17c9.3,3.7,20,6.1,35.7,6.8c15.7,0.7,20.7,0.9,60.6,0.9s44.9-0.2,60.6-0.9
				c15.6-0.7,26.3-3.2,35.7-6.8c19.7-7.6,35.4-23.2,43-43c3.6-9.4,6.1-20,6.8-35.7c0.7-15.7,0.9-20.7,0.9-60.6
				c0-39.9-0.2-44.9-0.9-60.6C401.4,179.7,398.9,169.1,395.3,159.7z M375.7,315.4c-0.7,14.3-3.1,22.1-5.1,27.3
				c-4.9,12.8-15.1,23-27.9,27.9c-5.2,2-13,4.4-27.3,5c-15.5,0.7-20.2,0.9-59.4,0.9c-39.3,0-43.9-0.2-59.4-0.9
				c-14.3-0.6-22.1-3-27.3-5c-6.4-2.4-12.2-6.1-16.9-11c-4.9-4.8-8.6-10.5-11-16.9c-2-5.2-4.4-13-5.1-27.3
				c-0.7-15.5-0.9-20.1-0.9-59.4c0-39.3,0.1-43.9,0.9-59.4c0.7-14.3,3.1-22.1,5.1-27.3c2.4-6.4,6.1-12.2,11-16.9
				c4.7-4.9,10.5-8.7,16.9-11c5.2-2,13-4.4,27.3-5.1c15.5-0.7,20.2-0.8,59.4-0.8c39.3,0,43.9,0.2,59.4,0.9c14.3,0.7,22.1,3,27.3,5.1
				c6.4,2.3,12.1,6.1,16.9,11c4.9,4.7,8.6,10.5,11,16.9c2,5.2,4.4,12.9,5.1,27.3c0.7,15.5,0.9,20.2,0.9,59.4
				C376.5,295.3,376.4,299.9,375.7,315.4z"/>
		</g>
	</g>
</g>
</svg>
