<?xml version="1.0" encoding="utf-8"?>
<!-- Generator: Adobe Illustrator 24.0.2, SVG Export Plug-In . SVG Version: 6.00 Build 0)  -->
<svg version="1.1" id="圖層_1" xmlns="http://www.w3.org/2000/svg" xmlns:xlink="http://www.w3.org/1999/xlink" x="0px" y="0px"
	 viewBox="0 0 512 512" style="enable-background:new 0 0 512 512;" xml:space="preserve">
<style type="text/css">
	.st0{clip-path:url(#SVGID_2_);}
	.st1{fill:#3C3C3D;}
	.st2{fill:#FFFFFF;}
</style>
<g>
	<defs>
		<rect id="SVGID_1_" width="512" height="512"/>
	</defs>
	<clipPath id="SVGID_2_">
		<use xlink:href="#SVGID_1_"  style="overflow:visible;"/>
	</clipPath>
	<g class="st0">
		<path class="st1" d="M256,0C114.9,0,0,114.8,0,256s114.8,256,256,256c141.2,0,256-114.8,256-256S397.2,0,256,0L256,0z"/>
		<path class="st2" d="M434.4,216.2l-0.2-0.9v0v0l-0.4-3.4c-0.1-0.7-0.2-1.5-0.3-2.4l-0.1-0.7h-0.2c-4.3-24.8-16.4-48.4-35-68.6
			c-18.5-20-42.6-35.9-69.6-45.8c-23.1-8.5-47.7-12.8-72.9-12.8c-34.1,0-67.2,8-95.8,23.2c-55.1,29.2-87.6,83-82.8,137
			c2.5,27.9,13.4,54.5,31.7,76.9c17.1,21,40.3,38.1,67.1,49.1c16.4,6.8,32.7,10,49.9,13.4l2,0.4c4.7,0.9,6,2.2,6.4,2.8
			c0.6,0.9,0.3,2.8,0,3.8c-0.2,0.9-0.4,1.9-0.7,2.8c-1.8,7.5-3.8,15.3-2.3,23.9c1.7,9.8,7.9,15.5,16.9,15.5
			c9.7,0,20.8-6.5,28.1-10.9l1-0.6c17.4-10.2,33.9-21.8,46.3-30.7c27-19.6,57.7-41.7,80.7-70.3C427.5,289.2,438.4,252.1,434.4,216.2
			L434.4,216.2z M188.4,270.9h-30.9c-4.7,0-8.5-3.8-8.5-8.4v-64.9c0-4.6,3.8-8.5,8.5-8.5c4.7,0,8.5,3.8,8.5,8.5V254h22.5
			c4.7,0,8.4,3.8,8.4,8.5C196.9,267.1,193.1,270.9,188.4,270.9L188.4,270.9z M220.7,262.2c0,4.7-3.8,8.5-8.5,8.5
			c-4.6,0-8.4-3.8-8.4-8.5v-64.9c0-4.7,3.8-8.4,8.4-8.4c4.7,0,8.5,3.7,8.5,8.4V262.2z M297.2,262.2c0,3.7-2.4,6.9-5.9,8
			c-0.8,0.3-1.7,0.4-2.6,0.4c-2.7,0-5.2-1.2-6.9-3.5l-30.4-42v37c0,4.7-3.8,8.5-8.5,8.5c-4.7,0-8.5-3.8-8.5-8.5v-63.1
			c0-3.7,2.4-6.9,5.9-8c3.5-1.1,7.3,0.1,9.5,3.1l30.5,41.9v-38.8c0-4.7,3.8-8.4,8.5-8.4c4.7,0,8.5,3.7,8.5,8.4
			C297.2,197.3,297.2,262.2,297.2,262.2z M358.8,269.3h-41.9c-4.7,0-8.5-3.8-8.5-8.4v-64.9c0-4.7,3.8-8.4,8.5-8.4h40.6
			c4.7,0,8.5,3.8,8.5,8.4c0,4.7-3.8,8.5-8.5,8.5h-32.1V220h26.1c4.7,0,8.5,3.8,8.5,8.4c0,4.7-3.8,8.5-8.5,8.5h-26.1v15.5h33.4
			c4.6,0,8.5,3.8,8.5,8.5C367.3,265.5,363.4,269.3,358.8,269.3L358.8,269.3z"/>
	</g>
</g>
</svg>
